<svg id="Capa_1" enable-background="new 0 0 511.016 511.016" height="512" viewBox="0 0 511.016 511.016" width="512" xmlns="http://www.w3.org/2000/svg"><g><path d="m485.408 4.409-101.893 101.893 42.106 42.106c5.858 5.858 5.858 15.355 0 21.213-5.857 5.857-15.355 5.858-21.213 0l-42.107-42.107-42.787 42.787 42.106 42.106c5.858 5.858 5.858 15.355 0 21.213-5.857 5.857-15.355 5.858-21.213 0l-42.107-42.107-42.787 42.787 42.106 42.106c5.858 5.858 5.858 15.355 0 21.213-5.857 5.857-15.355 5.858-21.213 0l-42.107-42.107-42.787 42.787 42.106 42.106c5.858 5.858 5.858 15.355 0 21.213-5.857 5.857-15.355 5.858-21.213 0l-42.107-42.107-42.787 42.787 42.106 42.106c5.858 5.858 5.858 15.355 0 21.213-5.857 5.857-15.355 5.858-21.213 0l-42.107-42.107-101.889 101.899c-9.422 9.422-2.738 25.607 10.606 25.607h481c8.284 0 15-6.716 15-15v-481c.001-13.325-16.17-20.042-25.606-10.607zm-71.393 394.607c0 8.284-6.716 15-15 15h-136c-13.318 0-20.048-16.165-10.606-25.607l136-136c9.423-9.423 25.606-2.737 25.606 10.607z"/></g></svg>